<svg id="svg" version="1.1" width="400" height="359.68992248062017" viewBox="0 0 400 359.68992248062017" xmlns="http://www.w3.org/2000/svg" xmlns:xlink="http://www.w3.org/1999/xlink" ><g id="svgg"><path id="path0" d="M286.202 31.278 C 286.202 31.426,284.806 31.647,283.101 31.768 C 281.395 31.889,280.000 32.116,280.000 32.273 C 280.000 32.430,279.442 32.558,278.760 32.558 C 278.078 32.558,277.519 32.684,277.519 32.838 C 277.519 32.992,276.682 33.215,275.659 33.333 C 274.636 33.452,273.798 33.662,273.798 33.800 C 273.798 33.938,273.101 34.146,272.248 34.264 C 271.395 34.381,270.698 34.603,270.698 34.758 C 270.698 34.912,270.427 35.039,270.096 35.039 C 269.765 35.039,269.415 35.166,269.319 35.322 C 269.223 35.478,268.587 35.699,267.905 35.814 C 267.224 35.929,266.667 36.151,266.667 36.306 C 266.667 36.462,266.422 36.594,266.124 36.600 C 265.826 36.605,265.023 36.880,264.341 37.209 C 263.659 37.539,262.857 37.813,262.558 37.819 C 262.260 37.825,262.016 37.936,262.016 38.066 C 262.016 38.315,259.752 39.380,259.223 39.380 C 259.053 39.380,258.915 39.504,258.915 39.656 C 258.915 39.808,258.532 40.029,258.065 40.146 C 257.598 40.263,257.144 40.458,257.057 40.578 C 256.970 40.698,255.922 41.280,254.729 41.871 C 253.535 42.462,252.512 43.050,252.455 43.178 C 252.398 43.306,252.154 43.411,251.912 43.411 C 251.671 43.411,251.473 43.535,251.473 43.687 C 251.473 43.839,251.124 44.051,250.698 44.158 C 250.271 44.265,249.922 44.490,249.922 44.657 C 249.922 44.824,249.723 44.961,249.480 44.961 C 249.236 44.961,248.846 45.136,248.614 45.349 C 248.116 45.805,247.166 46.429,246.512 46.729 C 246.256 46.846,245.877 47.089,245.670 47.269 C 244.618 48.183,244.342 48.372,244.058 48.372 C 243.888 48.372,243.429 48.690,243.037 49.078 C 242.646 49.466,241.767 50.125,241.085 50.543 C 240.403 50.960,239.550 51.584,239.190 51.930 C 238.830 52.275,238.224 52.767,237.843 53.023 C 237.463 53.279,236.851 53.744,236.483 54.057 C 236.115 54.370,235.419 54.929,234.937 55.298 C 234.454 55.667,233.425 56.527,232.649 57.209 C 231.874 57.891,230.968 58.659,230.638 58.915 C 229.570 59.740,220.980 68.359,219.380 70.211 C 218.527 71.197,217.516 72.346,217.132 72.763 C 216.748 73.179,216.434 73.658,216.434 73.826 C 216.434 73.994,215.740 75.037,214.892 76.144 L 213.349 78.156 213.927 79.621 C 216.678 86.585,232.963 126.407,233.131 126.581 C 233.251 126.705,233.973 125.878,234.736 124.743 C 237.568 120.532,244.542 111.493,248.203 107.287 C 250.291 104.888,258.193 97.315,259.527 96.434 C 259.914 96.178,260.413 95.795,260.636 95.581 C 260.859 95.368,261.190 95.194,261.373 95.194 C 261.556 95.194,261.705 95.064,261.705 94.905 C 261.705 94.746,262.013 94.518,262.389 94.399 C 262.764 94.279,263.263 93.991,263.496 93.758 C 263.729 93.524,264.120 93.333,264.363 93.333 C 264.607 93.333,264.806 93.194,264.806 93.023 C 264.806 92.853,265.085 92.713,265.426 92.713 C 265.767 92.713,266.047 92.580,266.047 92.417 C 266.047 92.254,266.535 92.030,267.132 91.918 C 267.729 91.806,268.217 91.595,268.217 91.449 C 268.217 91.303,268.915 91.092,269.767 90.978 C 270.620 90.865,271.318 90.651,271.318 90.503 C 271.318 90.354,271.795 90.233,272.377 90.233 C 272.960 90.233,273.490 90.071,273.556 89.874 C 273.726 89.364,283.588 89.355,284.097 89.865 C 284.300 90.067,284.786 90.233,285.178 90.233 C 285.571 90.233,285.891 90.360,285.891 90.515 C 285.891 90.671,286.450 90.892,287.132 91.008 C 287.814 91.123,288.372 91.329,288.372 91.467 C 288.372 91.604,288.721 91.803,289.147 91.910 C 289.574 92.017,289.922 92.242,289.922 92.409 C 289.922 92.576,290.063 92.713,290.235 92.713 C 290.969 92.713,293.619 95.408,294.962 97.519 C 295.504 98.372,296.102 99.167,296.290 99.286 C 296.949 99.703,298.929 104.413,299.664 107.308 C 303.397 122.030,299.569 138.134,289.422 150.388 C 285.847 154.704,275.982 163.987,273.734 165.150 C 273.189 165.431,272.587 165.818,272.395 166.009 C 272.204 166.200,271.592 166.705,271.036 167.132 C 270.479 167.558,269.862 168.049,269.663 168.222 C 268.660 169.096,266.708 170.543,266.531 170.543 C 266.314 170.543,266.095 170.710,264.608 172.014 C 264.073 172.484,263.325 173.078,262.946 173.333 C 262.567 173.589,261.869 174.147,261.395 174.574 C 260.921 175.000,260.224 175.558,259.845 175.814 C 259.466 176.070,258.768 176.628,258.295 177.054 C 257.821 177.481,257.123 178.039,256.744 178.295 C 256.365 178.550,255.662 179.109,255.180 179.535 C 254.243 180.364,253.477 180.961,252.392 181.705 C 252.019 181.961,251.327 182.519,250.853 182.946 C 250.379 183.372,249.688 183.930,249.317 184.186 C 248.946 184.442,248.040 185.209,247.304 185.891 C 246.568 186.574,245.565 187.434,245.076 187.803 C 244.586 188.172,243.880 188.730,243.506 189.043 C 243.131 189.356,242.434 189.918,241.955 190.291 C 239.946 191.857,239.594 192.150,238.304 193.333 C 237.559 194.016,236.625 194.819,236.227 195.119 C 233.116 197.464,223.668 206.912,218.986 212.360 C 218.599 212.810,218.096 213.388,217.868 213.643 C 217.640 213.899,216.928 214.806,216.286 215.659 C 215.644 216.512,215.028 217.279,214.917 217.364 C 214.805 217.450,214.464 217.912,214.158 218.393 C 213.852 218.873,213.397 219.501,213.146 219.788 C 210.472 222.850,202.626 235.544,199.601 241.705 C 197.450 246.086,195.984 249.366,194.751 252.558 C 194.223 253.922,193.654 255.281,193.485 255.577 C 193.316 255.873,193.178 256.271,193.178 256.461 C 193.178 256.650,192.979 257.245,192.735 257.783 C 188.632 266.827,180.908 300.441,179.348 316.047 L 179.139 318.140 251.042 318.139 L 322.946 318.139 324.750 304.728 C 325.742 297.353,327.521 284.188,328.703 275.475 C 329.885 266.761,330.853 259.261,330.853 258.809 L 330.853 257.987 290.244 257.908 L 249.635 257.829 251.738 253.643 C 254.788 247.574,258.084 241.882,258.921 241.240 C 259.032 241.155,259.616 240.309,260.218 239.361 C 261.420 237.468,266.146 231.143,266.942 230.362 C 267.217 230.092,267.786 229.417,268.207 228.862 C 269.511 227.140,274.630 221.575,277.886 218.339 C 281.578 214.669,286.678 209.989,288.748 208.372 C 289.075 208.116,289.746 207.543,290.239 207.098 C 291.348 206.096,293.636 204.183,296.218 202.097 C 296.696 201.711,297.566 200.977,298.151 200.465 C 298.735 199.953,299.640 199.186,300.160 198.760 C 300.680 198.333,301.924 197.217,302.925 196.279 C 303.927 195.341,305.387 193.986,306.171 193.267 C 306.955 192.548,307.597 191.866,307.597 191.752 C 307.597 191.637,309.940 189.225,312.803 186.392 C 321.047 178.235,324.873 173.871,327.814 169.273 C 328.424 168.318,329.446 166.853,330.085 166.017 C 330.723 165.180,331.398 164.147,331.583 163.721 C 331.769 163.295,332.423 162.109,333.037 161.085 C 334.765 158.204,338.605 150.508,338.605 149.924 C 338.605 149.847,339.008 148.903,339.500 147.827 C 346.479 132.590,349.649 109.174,347.627 87.795 C 347.266 83.981,346.913 80.768,346.843 80.655 C 346.677 80.386,345.064 73.266,344.931 72.213 C 344.874 71.768,344.282 69.744,343.614 67.717 C 339.939 56.566,333.744 47.037,326.199 40.930 C 325.672 40.504,325.048 39.981,324.813 39.767 C 324.578 39.554,324.242 39.380,324.067 39.380 C 323.892 39.380,323.417 39.048,323.011 38.642 C 322.605 38.236,321.936 37.798,321.524 37.670 C 321.112 37.541,320.705 37.340,320.620 37.222 C 320.395 36.912,316.450 35.039,316.022 35.039 C 315.822 35.039,315.659 34.911,315.659 34.756 C 315.659 34.600,315.101 34.379,314.419 34.264 C 313.736 34.148,313.178 33.940,313.178 33.800 C 313.178 33.661,312.481 33.451,311.628 33.333 C 310.776 33.216,310.000 32.994,309.905 32.839 C 309.809 32.685,309.332 32.558,308.845 32.558 C 308.357 32.558,307.912 32.426,307.855 32.264 C 307.798 32.101,306.461 31.872,304.884 31.754 C 303.306 31.636,302.016 31.419,302.016 31.273 C 302.016 31.127,298.457 31.008,294.109 31.008 C 289.760 31.008,286.202 31.129,286.202 31.278 M126.047 126.385 C 125.535 126.454,123.791 126.664,122.171 126.852 C 120.550 127.039,119.085 127.300,118.915 127.431 C 118.744 127.563,118.047 127.768,117.364 127.886 C 114.813 128.328,109.569 129.695,108.372 130.229 C 107.690 130.533,106.155 131.137,104.961 131.571 C 102.909 132.317,98.438 134.367,96.744 135.340 C 96.318 135.584,95.316 136.137,94.518 136.568 C 92.842 137.474,88.127 140.538,87.442 141.167 C 87.186 141.401,86.488 141.928,85.891 142.337 C 81.171 145.573,74.347 152.564,70.195 158.420 C 55.492 179.155,52.537 207.117,63.591 220.920 C 66.660 224.752,72.726 229.965,76.172 231.732 C 76.710 232.008,77.349 232.433,77.593 232.676 C 77.836 232.919,79.070 233.637,80.335 234.273 C 81.600 234.908,82.705 235.526,82.791 235.645 C 83.008 235.950,91.002 239.806,92.791 240.469 C 93.601 240.769,94.264 241.135,94.264 241.282 C 94.264 241.430,94.665 241.550,95.155 241.550 C 95.646 241.550,96.800 241.883,97.720 242.290 C 98.640 242.697,101.804 243.955,104.750 245.086 C 119.138 250.607,123.868 254.488,123.869 260.775 C 123.872 270.163,116.706 273.074,102.460 269.471 C 94.566 267.474,82.785 261.543,77.674 256.992 C 77.333 256.688,76.147 255.734,75.039 254.870 C 72.561 252.941,68.926 249.891,66.066 247.342 C 65.382 246.731,64.956 246.528,64.874 246.773 C 64.804 246.983,64.442 247.533,64.069 247.996 C 63.464 248.746,62.480 250.157,61.085 252.276 C 60.230 253.575,54.789 261.531,53.683 263.101 C 52.417 264.897,50.286 267.988,49.612 269.007 C 49.357 269.394,48.207 271.084,47.057 272.762 C 45.908 274.441,44.157 277.000,43.167 278.450 C 42.177 279.899,40.709 281.992,39.905 283.101 C 37.530 286.373,37.536 286.240,39.603 288.950 C 46.624 298.159,58.748 306.768,70.698 311.030 C 71.806 311.425,72.783 311.844,72.868 311.960 C 72.953 312.077,73.860 312.430,74.884 312.744 C 75.907 313.059,76.814 313.409,76.899 313.522 C 77.081 313.764,84.724 315.519,86.977 315.837 C 87.829 315.957,88.597 316.160,88.682 316.288 C 89.681 317.787,118.890 317.790,122.326 316.291 C 122.667 316.143,123.853 315.861,124.961 315.667 C 127.982 315.136,133.777 313.744,133.953 313.506 C 134.039 313.392,135.713 312.765,137.674 312.114 C 139.636 311.463,141.310 310.829,141.395 310.706 C 141.481 310.582,142.806 309.948,144.341 309.296 C 145.876 308.644,147.202 308.022,147.287 307.914 C 147.372 307.806,148.419 307.186,149.612 306.537 C 150.806 305.888,151.853 305.263,151.938 305.149 C 152.023 305.034,152.860 304.460,153.798 303.872 C 159.297 300.424,171.783 287.857,171.783 285.771 C 171.783 285.701,172.250 284.949,172.822 284.100 C 177.533 277.099,181.543 264.960,182.656 254.330 C 183.586 245.452,182.184 231.593,180.171 229.767 C 180.077 229.682,179.601 228.777,179.114 227.755 C 174.735 218.574,165.416 210.973,150.233 204.202 C 148.016 203.213,145.992 202.226,145.736 202.008 C 145.481 201.790,144.023 201.174,142.497 200.638 C 140.971 200.102,139.575 199.548,139.396 199.407 C 139.217 199.265,137.605 198.699,135.814 198.149 C 134.023 197.599,132.419 197.046,132.248 196.921 C 132.078 196.796,130.822 196.303,129.457 195.826 C 120.717 192.767,115.226 188.856,114.540 185.202 C 113.370 178.967,116.989 173.714,123.131 172.733 C 126.469 172.200,136.003 173.540,136.382 174.596 C 136.439 174.754,136.623 174.884,136.792 174.884 C 137.325 174.884,141.712 176.795,142.124 177.207 C 142.342 177.425,143.139 177.914,143.895 178.295 C 144.652 178.675,145.829 179.398,146.512 179.901 C 147.194 180.404,148.408 181.260,149.209 181.803 C 152.063 183.737,154.578 185.548,154.884 185.890 C 155.054 186.081,155.752 186.634,156.434 187.118 C 157.116 187.603,157.814 188.156,157.984 188.348 C 158.155 188.539,159.027 189.228,159.922 189.878 C 160.818 190.529,161.550 191.211,161.550 191.396 C 161.550 191.580,161.639 191.642,161.748 191.534 C 161.857 191.425,162.359 191.631,162.865 191.991 C 163.381 192.359,163.873 192.519,163.986 192.356 C 165.046 190.825,167.163 188.102,168.190 186.949 C 168.887 186.166,170.434 184.158,171.628 182.486 C 172.822 180.815,174.217 178.922,174.729 178.279 C 175.240 177.637,176.636 175.753,177.829 174.093 C 179.023 172.433,180.419 170.545,180.930 169.897 C 181.442 169.249,182.184 168.257,182.579 167.693 C 182.974 167.129,184.198 165.481,185.299 164.031 C 186.401 162.581,187.647 160.907,188.068 160.310 C 189.164 158.759,190.028 157.562,191.705 155.268 C 192.516 154.161,193.178 153.097,193.178 152.905 C 193.178 152.416,187.946 146.615,185.314 144.186 C 184.113 143.078,182.830 141.884,182.464 141.533 C 182.098 141.183,181.045 140.346,180.124 139.674 C 179.203 139.001,178.240 138.276,177.984 138.063 C 176.656 136.954,174.163 135.389,172.093 134.364 C 170.814 133.730,169.686 133.093,169.585 132.949 C 169.485 132.804,167.950 132.197,166.175 131.600 C 164.399 131.004,162.527 130.325,162.016 130.092 C 161.119 129.684,155.264 128.306,152.713 127.903 C 152.031 127.795,151.194 127.584,150.853 127.433 C 149.112 126.664,129.950 125.854,126.047 126.385 " stroke="none" fill="#000000" fill-rule="evenodd"></path><path id="path1" d="M142.710 28.169 C 141.131 28.808,139.655 29.533,139.429 29.781 C 138.066 31.279,135.848 35.510,135.050 38.135 C 134.557 39.753,133.463 42.543,132.617 44.336 C 131.129 47.493,131.070 47.726,130.760 51.655 L 130.439 55.713 131.471 57.547 C 132.106 58.674,134.085 60.992,136.610 63.566 C 140.302 67.329,140.821 67.994,141.740 70.152 C 142.632 72.243,142.898 72.597,143.806 72.896 C 144.380 73.086,144.926 73.441,145.020 73.685 C 145.114 73.930,145.837 74.568,146.626 75.103 C 147.416 75.638,148.530 76.479,149.102 76.972 C 150.533 78.204,150.633 77.868,149.449 75.799 C 147.612 72.588,150.776 72.710,155.786 76.043 C 158.681 77.968,160.658 81.193,163.406 88.471 C 167.424 99.114,177.407 107.573,189.281 110.396 L 193.325 111.358 196.740 113.887 C 201.198 117.189,206.165 120.530,213.798 125.362 C 219.096 128.715,220.867 130.053,225.949 134.537 L 231.899 139.787 221.453 147.308 C 215.708 151.445,207.729 157.348,203.721 160.427 C 193.675 168.143,182.496 176.921,180.792 178.432 C 180.012 179.124,176.649 181.525,173.319 183.768 C 168.169 187.237,167.070 188.118,165.963 189.660 C 163.620 192.924,163.891 192.721,162.861 191.988 L 161.964 191.350 153.928 196.630 C 149.508 199.534,145.891 201.986,145.891 202.079 C 145.891 202.171,147.845 203.127,150.233 204.201 C 165.813 211.215,175.774 219.472,179.445 228.418 C 180.128 230.083,179.650 230.289,186.101 225.539 C 202.453 213.500,208.621 208.359,218.351 198.658 C 225.469 191.561,226.315 190.824,230.444 188.116 C 234.746 185.296,234.961 185.103,237.364 181.901 C 239.608 178.912,240.333 178.221,244.961 174.663 C 247.775 172.500,250.775 170.111,251.628 169.356 C 252.481 168.600,253.956 167.453,254.907 166.807 C 255.857 166.161,257.075 165.131,257.612 164.519 C 258.150 163.907,259.987 162.421,261.696 161.217 C 265.259 158.705,265.380 158.697,267.653 160.807 C 269.320 162.356,273.229 164.961,273.884 164.961 C 276.260 164.961,294.574 145.468,294.574 142.940 C 294.574 142.662,293.248 140.953,291.628 139.142 C 288.224 135.337,288.225 135.341,290.108 133.934 C 290.892 133.348,291.718 132.519,291.943 132.093 C 292.184 131.635,292.965 131.071,293.850 130.714 C 297.175 129.375,300.763 126.271,300.770 124.729 C 300.776 123.490,301.197 123.415,297.022 125.401 C 295.079 126.326,293.436 127.028,293.370 126.962 C 293.013 126.605,294.372 125.337,295.460 125.011 C 296.608 124.667,297.957 123.599,299.258 122.006 C 299.532 121.670,300.055 121.153,300.421 120.856 C 302.761 118.955,298.346 98.117,295.901 99.526 C 295.598 99.701,294.274 100.248,292.960 100.742 C 291.647 101.236,289.967 102.136,289.227 102.742 C 287.992 103.754,286.306 104.818,275.969 111.105 C 274.008 112.297,271.657 113.605,270.745 114.011 C 269.832 114.416,268.579 115.092,267.959 115.514 C 266.694 116.374,265.274 116.517,265.003 115.811 C 264.554 114.641,259.643 109.394,256.124 106.324 L 252.248 102.942 250.698 104.596 C 246.089 109.512,238.744 118.784,234.736 124.743 C 233.973 125.878,233.251 126.705,233.131 126.581 C 232.963 126.407,216.678 86.585,213.927 79.621 L 213.349 78.156 214.892 76.144 C 215.740 75.037,216.434 74.071,216.434 73.998 C 216.434 73.925,214.725 72.928,212.636 71.782 C 200.627 65.196,197.455 63.108,194.690 59.971 C 193.262 58.351,190.698 55.811,188.992 54.328 C 187.287 52.845,182.961 48.697,179.380 45.111 C 173.724 39.447,172.420 38.308,169.457 36.444 C 167.581 35.264,164.533 33.259,162.683 31.989 C 160.834 30.719,157.973 29.072,156.327 28.330 L 153.333 26.980 149.457 26.994 C 145.713 27.008,145.484 27.048,142.710 28.169 M373.064 64.031 C 372.403 64.628,371.657 65.116,371.406 65.116 C 370.453 65.116,369.922 66.190,369.922 68.118 C 369.922 69.890,369.502 71.777,368.977 72.360 C 368.845 72.507,367.729 72.612,366.498 72.593 C 363.507 72.547,362.709 73.079,359.976 76.933 C 357.085 81.010,356.934 81.098,352.990 81.005 L 349.821 80.929 348.522 82.402 C 347.259 83.835,347.228 83.922,347.414 85.518 C 347.519 86.422,347.694 88.410,347.803 89.937 C 347.911 91.464,348.098 92.713,348.217 92.713 C 348.550 92.713,350.777 91.028,351.458 90.261 C 351.791 89.886,352.919 89.184,353.964 88.700 C 355.410 88.031,356.372 87.255,357.994 85.449 C 359.555 83.712,360.637 82.826,362.041 82.135 C 363.951 81.195,365.192 80.103,366.464 78.245 C 366.833 77.706,368.285 76.491,369.691 75.545 C 372.797 73.457,375.896 70.350,376.581 68.639 C 377.008 67.572,377.288 67.318,378.388 67.004 C 382.444 65.846,382.151 66.041,382.268 64.419 L 382.374 62.946 378.320 62.946 L 374.265 62.946 373.064 64.031 M345.638 71.995 C 345.132 72.180,344.829 72.480,344.917 72.709 C 345.000 72.927,345.440 74.761,345.894 76.785 C 346.735 80.537,346.977 81.261,346.977 80.032 C 346.977 79.500,347.333 79.184,348.519 78.662 C 350.758 77.678,351.366 75.732,350.176 73.362 C 349.194 71.407,349.177 71.389,348.833 71.944 C 348.610 72.306,348.475 72.320,348.168 72.013 C 347.715 71.560,346.850 71.554,345.638 71.995 M320.144 178.824 C 319.488 179.641,316.383 182.861,313.244 185.979 C 307.830 191.358,306.930 192.558,308.316 192.558 C 308.551 192.558,309.472 193.395,310.362 194.419 C 311.252 195.442,312.137 196.279,312.327 196.279 C 312.518 196.279,312.264 195.851,311.763 195.328 L 310.853 194.376 311.705 194.700 C 312.832 195.128,312.819 194.732,311.628 192.403 C 309.528 188.297,311.512 188.471,318.847 193.036 C 320.104 193.818,321.448 194.419,321.941 194.419 C 323.035 194.419,323.756 194.871,327.548 197.932 C 332.067 201.581,337.938 203.529,340.270 202.153 C 342.391 200.902,342.052 200.400,328.854 185.271 C 321.157 176.449,321.717 176.864,320.144 178.824 M328.545 204.456 C 326.527 206.596,327.636 209.612,330.442 209.612 C 332.088 209.612,334.825 210.977,335.061 211.916 C 335.171 212.354,335.420 212.717,335.615 212.721 C 335.810 212.725,337.022 213.253,338.309 213.894 C 340.385 214.927,343.931 215.748,342.636 214.895 C 342.242 214.636,342.302 214.466,343.023 213.794 C 345.190 211.772,341.890 208.384,339.026 209.689 C 337.899 210.202,336.722 209.491,335.425 207.512 C 332.628 203.247,330.554 202.326,328.545 204.456 M93.333 243.465 C 92.225 244.503,88.283 247.920,84.574 251.059 C 76.839 257.603,77.319 256.883,79.612 258.496 C 98.723 271.940,119.821 275.065,123.328 264.971 C 126.206 256.688,121.300 251.436,104.750 245.086 C 101.804 243.955,98.640 242.697,97.720 242.290 C 95.529 241.321,95.660 241.286,93.333 243.465 M34.729 289.020 C 24.488 297.730,19.782 304.126,18.574 310.977 L 17.940 314.574 18.886 317.137 C 20.851 322.456,26.531 328.980,30.585 330.575 C 39.257 333.986,47.768 332.900,55.039 327.456 C 56.574 326.306,58.838 324.698,60.072 323.882 C 61.411 322.995,62.820 321.727,63.570 320.734 L 64.826 319.070 66.769 319.070 C 68.676 319.070,71.008 317.612,71.008 316.420 C 71.008 316.256,71.880 315.577,72.946 314.911 L 74.884 313.699 73.783 313.206 C 73.108 312.904,72.721 312.533,72.782 312.248 C 72.853 311.920,72.262 311.567,70.783 311.053 C 59.047 306.972,46.916 298.390,39.708 289.070 C 38.619 287.663,37.717 286.512,37.702 286.513 C 37.687 286.514,36.349 287.642,34.729 289.020 " stroke="none" fill="#ec2526" fill-rule="evenodd"></path></g></svg>