<?xml version="1.0" encoding="utf-8"?>
<!-- Generator: Adobe Illustrator 18.0.0, SVG Export Plug-In . SVG Version: 6.00 Build 0)  -->
<!DOCTYPE svg PUBLIC "-//W3C//DTD SVG 1.1//EN" "http://www.w3.org/Graphics/SVG/1.1/DTD/svg11.dtd">
<svg version="1.1" id="Layer_5" xmlns="http://www.w3.org/2000/svg" xmlns:xlink="http://www.w3.org/1999/xlink" x="0px" y="0px"
	 viewBox="0 0 501.6 197.4" enable-background="new 0 0 501.6 197.4" xml:space="preserve">
<symbol  id="xprod" viewBox="-113.2 -95.3 226.5 190.6">
	<g id="Layer_1_2_">
	</g>
	<g>
		<path fill="none" stroke="#EC2526" stroke-miterlimit="10" d="M-112.7-83.9l0.7,4l2.8,4.8l4.4,4.5l10.8,9.2l5.2,4.5l6.8,4.1
			l6.5,4.4l8.4,7.1l8.8,8.5l7.1,6.4l9.6,6.9l8.1,5c0,0,21.6,14.1,21.8,14.6S6.5,14.4,6.5,14.4l14.4,10.4l-8.2,7.2l-7.1,4.5l-4.8,3.2
			l-4.6,3.4l-5,1.2l-5.8,3.1l-4.1,3.4l-2.6,3.9l-1.8,4.8l-2.2,4.1l-2.4,3l-2.5,0.6l-2.4-0.8l-2.5,0.8l-1.4,3.1l-2.6,2.6l-2.1,2
			l-1.5,2.5l0.4,4.6l1.9,4.1l1.1,3.6l2.1,3.4l3.8,1.5h4l3.6-1.6l3.8-2.6l4.4-2.8l3.5-3.2l3.6-3.9l5.1-4.5l3.4-3.8l6.8-4l6.2-3.4
			l10-7.1l5.8-5l4.9-5l5.1-4.4l3-3.5l0.6-1.1l2.1,0.4l4.8,2.8l6.4,4l1.2,0.6l1.9,1.6l3.2,1.2l1.9,1.7l0.8,0.8l1.9,1.1l3.4,1.4l1.3,1
			l1.8,0.4l0.8,0.2l1,1.2l1.2,0.4l2,0.9l3.1,1.9l1.2,1.1l1.6,0.5l1.2,1.2l1.9,0.4l2,0.9l3.1,1.9l1.5,0.4l1.1-0.9l-1.5-2.1l0,0
			l-0.4-1.8l-1.4-1.2l-1-1.5c0,0-1.9-1.5-2.2-1.9S84,55.2,84,55.2l-0.8-1.2l-1.9-2.1l-1-0.9l-1.8-1l-3.1-0.5l-2.2,0.5l-1.8-1.2
			l0.5-1.5l0.1-1.2L72,44.7l-0.5-0.9l-1.6-0.6l-2.5-0.2l-1-0.5l-0.2-1.8l-0.6-1.1l-1-1l-1.2-0.8l-2.1-0.4l-1,0.2l-0.8-1.5l-0.8-1
			l-1.2-2.1l-0.6-1.4l-0.2-1.9l-1.8-1.4l-0.5-1l1-1.1l2.6-2.9l3-3.5l2.1-2.5l5.1-6.8l6.2-8.2l7.5-8.6L85-9.9
			c0.6-0.7,2.3-2.7,2.4-3.4l-0.9-0.5l-3.4,0.9l-1.5,0.6l-3.4,2.8L77-8.7l-1.5,0.2l-2.9,1.8l-2.8,1.4l-1.8-0.4l-2.2,0.6l-2.1,2.1
			l-2.2,1.9l-1.2,1.9L57.4,3l-4,2.7l-2.9,1.9l-3.9,1.8l-2.9,1.8l-1.9,1.8l-1.4,0.6l-5.6-3.9l-3.4-3.2l-3.4-2.6l-3.4-2.6l-3.4-4.4
			l-4.8-3.1l-4.2-3.9c0,0-3.9-3.9-4.2-4.4s-5-4.4-5-4.4l-8.5-6.6l-9.2-6.8l-8-6.2L-37-48.8l-6.6-8.2l-5.1-6.5l-3.6-2.6l-3.4-3
			l-4.1-1.8l-3.4-0.6l-6.3-1.1l-4.2-3.2l-4-3.1l-2.2-3.8l-1.1-2.6l-1-1h-2.5l-1.6-2.1l-3.5-2.4l-2.6-2l-3.1-1.4l-4-0.5l-4,0.5
			l-3.6,1.4l-3.2,3.8l-1.6,2.2L-112.7-83.9z"/>
		<path fill="#EC2526" d="M91.9,66.9c-0.7,0.1-1.5-0.1-2-0.5c-0.2-0.1-0.4-0.3-0.6-0.4c-0.3-0.2-0.6-0.3-0.9-0.5
			c-0.2-0.1-0.4-0.1-0.5-0.2c0,0,0,0,0,0c-0.1-0.1-0.2-0.1-0.3-0.2c-0.1-0.1-0.3-0.2-0.4-0.4c0,0-0.1-0.1-0.1-0.1
			c-0.5,0.1-1.1,0-1.5-0.3c-0.1-0.1-0.3-0.2-0.4-0.3c-0.2,0-0.3,0.1-0.5,0.1c-1.3,0-2.2-0.8-2.9-1.8c0-0.1-0.1-0.1-0.1-0.2
			c-0.2,0-0.5,0-0.7,0c-0.4,0-0.7-0.1-1.1-0.3c-0.3-0.1-1.2-0.6-0.8-1.1c-0.2-0.1-0.4-0.2-0.6-0.4c-0.3-0.2-0.6-0.4-1-0.5
			c0,0,0,0,0,0c-0.1,0-0.1-0.1-0.2-0.1c-0.2-0.1-0.4-0.3-0.6-0.5c0,0-0.1-0.1-0.3-0.2c-0.3-0.2-0.7-0.3-1-0.5
			c-0.9-0.4-1.7-0.9-2.6-1.3c-0.1,0-0.2-0.1-0.3-0.1c0,0-0.1,0-0.1-0.1c-0.9-0.4-1.7-0.8-2.3-1.4c-1-0.3-2-0.6-2.8-1.4
			c-0.7-0.3-1.3-0.6-2-0.9c-2-1-3.9-2.3-5.5-3.8c0,0-0.1,0-0.1-0.1c-0.5-0.3-1.1-0.6-1.6-0.8c-0.3,0-0.5-0.1-0.8-0.3
			c-0.4-0.3-0.8-0.5-1.3-0.8c-1.2-0.6-2.3-1.3-3.3-2.1c-0.6-0.4-1.3-0.7-1.9-1.1c-2.1-1.1-4.3-2.1-6.2-3.4c-0.6-0.1-1.2-0.3-1.7-0.7
			c-0.7-0.5-1.3-1-2-1.4c-0.1,0.1-0.2,0.2-0.3,0.2c-0.7,0.7-1.5,1.3-2.3,2c-0.1,0.4-0.3,0.7-0.7,1c-0.8,0.8-1.6,1.5-2.5,2.3
			c-0.2,0.2-0.4,0.3-0.5,0.4c-0.4,0.6-1,1.2-1.7,1.8c-0.3,0.2-0.5,0.4-0.8,0.6c-0.9,1.6-2,3-3.4,4.3c-1.4,1.3-3.2,2.3-4.9,3.2
			c-0.6,0.5-1.1,1-1.7,1.5c-0.1,0.1-0.1,0.3-0.2,0.4c-0.9,1.3-2,2.3-3.5,3c-0.2,0.1-0.3,0.1-0.5,0.2c-0.5,0.4-1,0.7-1.5,1
			c-0.2,0.5-0.5,1-1,1.3c-1,0.6-2,1.1-3,1.5c-0.2,0.3-0.5,0.5-0.8,0.8c-0.8,0.4-1.5,0.9-2.3,1.3c-0.1,0.1-0.3,0.1-0.4,0.2
			c-0.2,0.6-0.8,1.2-1.7,1.4c-3,0.8-6.7,3-9.3,4.8c-0.1,0.1-0.2,0.2-0.2,0.4c-0.6,0.7-1.2,1.3-2,1.8c-0.6,1-1.8,2.3-1.8,2.4
			c-1.2,1.3-2.7,2.2-3.8,3.5c-2.5,3-5.2,5.7-8.7,7.6c-0.3,0.4-0.6,0.8-1,1.2c-0.9,1-2.4,1.5-3.8,2.1c-0.2,0.3-0.4,0.6-0.8,0.8
			c-4.4,3.1-10.3,4.2-13.9-0.6c-0.2-0.2-0.3-0.4-0.4-0.7c-0.2-0.2-0.3-0.4-0.5-0.6c-2-3.5-2.9-8.3-3.3-12.3c0-0.2,0-0.5,0.1-0.7
			c0-0.6,0.2-1.2,0.8-1.8c0.2-0.2,0.4-0.4,0.6-0.5c2-1.8,3.4-3.9,5.2-6c2.1-2.7,5.5-1.7,8.1-3.9c0.4-0.3,0.7-0.5,1.1-0.6
			c1-1.2,2-2.3,3.1-3.4c0.1-0.3,0.1-0.6,0.2-0.9c0.3-2.8,1.7-5.1,3.2-7.4c2.1-3.1,4.6-4.7,7.5-6c0.2-0.5,0.5-1,1.1-1.4
			c1.9-1.1,3.8-1.3,5.9-1.7c1.4-0.3,2.8-1.1,4.2-1.8c0.1-0.8,0.7-1.6,1.7-2c1.4-0.5,3-2,4.2-2.8c1.6-1,3.3-1.8,4.9-2.7
			c1-0.6,2-1.2,3.1-1.8c1.1-1.1,2.3-2.2,3.5-3.3c0.7-0.6,1.4-1.1,2.2-1.6c0.6-0.6,1.2-1.2,1.8-1.8c0.3-0.3,0.7-0.7,1-1
			c-0.8-0.5-1.7-1-2.4-1.6c-0.4-0.3-0.7-0.7-1.1-1.1c-3.6-1.5-6.9-4.6-9.8-6.7c-2.1-1.6-3.9-3.5-6-5C0.9,9.8,0.3,9.2-0.3,8.5
			c-0.1,0-0.2-0.1-0.3-0.1c-2.7-1.2-4.6-3.2-6.8-5.1c-0.3,0-0.7-0.2-1-0.4c-3-2.3-6.2-4.5-9.3-6.6c-0.6-0.4-0.9-0.9-1-1.4
			c-9.1-6.7-20-10.8-28.3-18.6c-2.7-0.3-5.3-3.1-7.2-4.6c-3.3-2.7-6-5.8-8.8-9c-0.8,0-1.5-0.4-2-1.3c-1.1-2.1-3.2-3.7-4.8-5.4
			l-0.6-0.6c-2.3-1.1-3.8-2.8-6.2-4.7c-3.5-2.7-7.2-5-10.9-7.5c-0.3-0.1-0.5-0.2-0.8-0.3c-1.4-0.9-2.6-1.8-3.8-3c0,0,0-0.1-0.1-0.1
			c-2-1.4-4.1-2.8-5.9-4.6c-0.6-0.6-1.2-1.2-1.8-1.8c-5-3.2-9.9-8.4-12-13.5c-2.5-6,2.5-10.6,7-14c0.4-0.3,1.1-0.4,1.6-0.3
			c0.2-0.1,0.5-0.3,0.7-0.3c1.5-0.3,2.9-0.4,4.4-0.4c0.9,0,1.7,0.5,2.1,1.2c1.2,0.3,2.4,0.8,3.5,1.5c3,1.7,5.5,3.4,8.1,5.5
			c1.5,0.3,2.9,0.9,3.9,2.1c1,1.2,1.1,2.8,2,4.1c0.4,0.1,0.8,0.3,1.2,0.7c1.8,1.9,3.7,3.8,5.8,5.4c2.2,1.7,4.7,1.9,7.2,2.9
			c0.3,0,0.6,0,0.9,0.1c0.1,0,0.3,0,0.4,0c1,0.1,2,0.2,3,0.4c0.7,0.2,1.4,0.4,1.9,0.9c0.2,0.2,0.4,0.5,0.6,0.8
			c0.6,0.2,1.2,0.4,1.7,0.7c1.2,0.7,2.3,1.5,3.3,2.4c0.4,0.1,0.8,0.3,1.1,0.8c0.4,0.5,0.8,1,1.2,1.5c0.7-0.2,1.5,0,2.2,0.7
			c4.1,4.7,7.4,10.2,11.6,14.9c3.4,3.8,8.4,5.6,12,9.1c0.3,0.1,0.7,0.3,1,0.6c2.7,2.2,5.4,4.3,8.1,6.3c0.4,0.3,0.7,0.7,0.8,1
			c3.6,2.2,7.1,4.5,10.6,6.9c0.4,0.3,0.7,0.6,0.9,1c0.1,0.1,0.3,0.2,0.4,0.4c1.3,1.7,3.5,2.2,5.1,3.6c1.8,1.6,3.9,3.1,5.5,4.9
			c0.4,0.4,0.6,0.9,0.7,1.3c2,1.7,3.9,3.4,5.6,5.3c0.2,0.1,0.4,0.2,0.6,0.3c2.9,2.2,6.3,4.2,8.4,7.2c2.3,3.2,5.7,5.4,8.7,7.9
			c0.4,0,0.8,0.1,1.2,0.3c0.1,0,0.2,0.1,0.2,0.1C33.8,7.8,33.9,7.9,34,8c0.5,0.3,1,0.6,1.4,1c0.7,0.6,1.1,1.5,1.5,2.3
			c0.1,0.1,0.1,0.2,0.1,0.3c1.1,0.6,2.2,1.2,3.2,1.8c0.2,0,0.4,0,0.6-0.1c0.1,0,0.1-0.1,0.2-0.1c1-0.6,1.7-1.8,2.7-2.5
			c2-1.5,4.3-2.4,6.6-3.5c2.4-1.2,4.9-2.5,6.8-4.4c1.4-1.4,2.5-2.7,4.3-3.6c0,0,0-0.1,0.1-0.1c0.1-0.2,0.3-0.3,0.4-0.5c0,0,0,0,0,0
			c0,0,0,0,0,0c1.9-2.3,4.2-4.4,7.4-3.7c0.2,0,0.3,0.1,0.5,0.2c0.5-0.2,1-0.4,1.5-0.6c0.9-0.4,1.5-1.2,2.4-1.8
			C74-7.6,74.4-7.8,74.9-8c1.2-0.9,2.5-1.6,3.9-2.3c0.4-0.2,0.8-0.3,1.1-0.3c1.3-1.4,3.1-2.3,4.7-3.3c0.6-0.4,1.5-0.3,2.1,0.2
			c0.5,0.4,0.8,1.2,0.1,1.5c-0.3,0.2-0.6,0.3-0.9,0.5c0.2,0.2,0.3,0.4,0.1,0.6c0.1,0.2,0.1,0.3-0.1,0.4c-0.2,0.2-0.5,0.4-0.8,0.5
			c-0.2,0.3-0.3,0.6-0.5,0.9c-0.4,0.8-1.1,1.3-1.5,2.1c-0.2,0.3-0.6,0.4-1,0.4c-0.1,0.2-0.3,0.4-0.5,0.5c-0.1,0.6-0.4,1.2-1.1,1.7
			c-1.5,1.1-2.7,2.6-3.9,4c-0.1,0.2-0.1,0.4-0.3,0.6c-1.4,2.3-3.1,4.4-5.2,6.1c-0.2,0.1-0.4,0.2-0.5,0.3c0,0.1-0.1,0.1-0.1,0.2
			c0,0-0.1,0.1-0.1,0.1c0,0-0.1,0.1-0.1,0.1c-0.1,0-0.1,0.1-0.2,0.1c-0.6,1.1-1.1,2.4-1.6,3.2c-1,1.5-1.8,2.7-3.4,3.5l-1.8,2.7
			c-0.2,0.3-0.5,0.6-0.7,0.7c-0.2,0.3-0.5,0.7-0.7,1c-0.7,1-1.4,1.9-2.2,2.7c-0.5,0.5-1,0.8-1.4,1.2c-0.1,0.1-0.2,0.2-0.3,0.4
			l-0.8,0.9c-0.2,0.3-0.3,0.6-0.5,0.9c-0.6,1.3-1.1,2.6-1.9,3.7c0,0,0,0,0.1,0c0,0,0.1,0.1,0.1,0.1c0.3,0.3,0.5,0.7,0.6,1.1
			c0.8,1.5,1.6,3,2.4,4.5c0.3,0.1,0.6,0.3,0.9,0.5c1.2,0.2,2.2,1,2.8,2c0,0.1,0.1,0.1,0.1,0.2c0.3,0.2,0.7,0.4,1,0.7
			c0.3,0.3,0.4,0.6,0.1,0.8c0.7,0.2,1.4,0.7,1.8,1.3c0.3,0.2,0.8,0.5,0.7,0.8c0.1,0.1,0.2,0.1,0.3,0.2c0.1,0.1,0.2,0.3,0.3,0.4
			c0.2,0.1,0.5,0.2,0.6,0.4c0.4,0.4,0.8,0.8,1.1,1.3c0.2,0,0.5,0.1,0.7,0.1c1,0,2,0.2,2.7,0.8c0.3,0.3,0.6,0.8,0.7,1.2
			c0.3,0.2,0.6,0.4,1,0.6c0.8,0.6,1.3,1.5,1.2,2.4c0.2,0.2,0.5,0.8,0.6,0.9c0.1,0.2,0.2,0.3,0.3,0.4c0.6,0.2,1.3,0.4,1.9,0.6
			c0.3,0,0.6,0,1,0.2c0.4,0.2,0.8,0.4,1,0.7c0.2,0.1,0.3,0.2,0.5,0.2c0,0,0,0,0,0c0.4,0.1,0.9,0.2,1.3,0.6c2,1.7,3.7,3.6,5.1,5.8
			c0.2,0.2,0.2,0.5,0.3,0.7c0.1,0.1,0.1,0.1,0.2,0.2c0.2,0.2,0.3,0.4,0.4,0.6c0.4,0.2,0.8,0.4,1.1,0.7c0.1,0.1,0.2,0.2,0.3,0.3
			c0.1,0.1,0.2,0.2,0.3,0.3c0.4,0.4,0.7,0.9,0.8,1.4c0.1,0.1,0.2,0.2,0.3,0.3c0.2,0.2,0.3,0.4,0.5,0.6c0.2,0.1,0.4,0.2,0.5,0.3
			c0.4,0.5,0.7,0.9,0.9,1.5c0,0.2,0,0.4-0.1,0.5c0.1,0.2,0.3,0.5,0.4,0.7c0,0.1,0.1,0.2,0.1,0.2c0.2,0.1,0.4,0.3,0.5,0.4
			C92.6,66.2,92.6,66.7,91.9,66.9z"/>
		<path fill="#EC2526" d="M89.3,55.7l1.5,2.4l1.7,2.3c0,0,0.7,1,1,1s1,0,1.2,0s0.6,0,0.6,0c0.5-0.4,1.7,0,1.7,0h0.6l0.7,0.6l0.6,0.7
			l0.5,0.6c0.2,0.5,0.8,1.3,0.8,1.3l0.6,0.8l0.5,0.5c0.5,0.4,1.3,0.8,1.3,0.8h0.5h0.8c0.2-0.4,0.9,0,0.9,0h0.6
			c0.3,0.7,0.5,1.4,0.5,1.4v0.8v0.6v1c0.4,0.5,0.8,0.8,0.8,0.8h0.6c0.5,0.7,0.5,0.7,1,1s0.5,0.3,0.5,0.3h1h0.8h0.8
			c0.5,0.1,1.2,0,1.2,0l0.8,0c0.2-0.7,0-1.2,0-1.2c-0.2-0.5,0.3-0.3-0.2-0.5c-0.5-0.2-1-0.4-1-0.4h-0.7l-1.2-0.5l-0.5-0.8l-0.1-0.6
			c-0.2-0.4-0.8-0.8-0.8-0.8l-0.8-0.7c0,0,0.6,0.2-0.6-0.8c-1.2-0.9-1.6-1.2-1.6-1.2l-0.6-0.4l-1-0.6l-0.7-0.8l-0.4-0.6
			c-0.3-0.4-0.7-0.8-0.7-0.8l-0.7-0.6c-0.5-0.2-1.2-0.5-1.2-0.5c-0.5-0.4-1.2-0.8-1.2-0.8l-0.7-0.7c0,0-0.2-0.5-0.5-0.8
			s-0.9-0.9-0.9-0.9l-0.7-0.5c-0.5-0.2-1.2-0.5-1.2-0.5s-0.2-0.2-0.5-0.3c-0.2-0.1,0.3,0.4-0.2-0.1c-0.6-0.5-0.6-0.5-0.6-0.5
			s-0.5-0.6-0.8-0.8s-0.7-0.5-0.7-0.5c-0.6-0.3-0.6-0.3-0.6-0.3h-1.4c-0.5-0.1-0.9,0-0.9,0l-0.5,0c-0.2,1-0.2,1-0.2,1s-0.2-0.4,0,0"
			/>
		<path fill="#EC2526" d="M61.9,34c0.5,0.4,2.7,1.8,2.9,2.3s1.8,2.2,2.2,2.6c0.3,0.4,1.3,1.2,1.3,1.2v-0.5l-0.5-1.8l-1-1l-2.1-1.6
			l-1.4-1.3l-3.1-2.3L59.4,31c0,0-0.5-0.2-1.2-0.5c-0.4-0.2-0.9-0.4-1.3-0.6c-0.2-0.1-0.4-0.2-0.4-0.2s0,0.9,0,1
			c0,0.1,0.2,0.9,0.2,0.9l2,0.4C58.7,32.1,61.6,33.8,61.9,34z"/>
		<path fill="#EC2526" d="M57.2,32.1c0,0-0.2-1,1.5,0c1.7,1,2.2,1.3,2.2,1.3l0.6,0.3l0.9,0.7l0.8,0.6"/>
		<path fill="#EC2526" d="M80.5-15.1c0.5,0.3,2,0,2,0c0.7-0.8,1.6-2,1.6-2c1-1.5,1-1.5,1-1.5s-1.3,0.7,0,0c1.3-0.7,2,0,2,0
			c1-0.3,1.7-0.3,1.7-0.3c0.5-0.7,0.8-1.5,0.8-1.5c-0.2-0.8-0.8-0.8-0.8-0.8c-0.3-0.8-0.3-0.8-0.3-0.8s1.3-0.3,0,0
			c-1.3,0.3-0.2-0.3-1.3,0.3S86-21.1,86-21.1l-1.6,0.7l-0.4,1c-1.3,0.5-2,0.8-2,0.8h-1.2c-0.8,0.5-0.8,1-1.3,1.3S80-15.5,80.5-15.1z
			"/>
		<line fill="#EC2526" x1="87.7" y1="-17.8" x2="87.7" y2="-18.6"/>
		<path fill="#EC2526" d="M60.8,0l0.7-0.9l2.2-2.1l1.1-2.7l1.3-1.2c0,0,0.5-0.2,1-0.7s0.8-0.3,1.2-0.8c0.3-0.5,1.8-2,1.8-2l-1.5,1.5
			L70-9.4l0,0.4l-0.4,0.5l-0.2,0.6l-0.2,0.5c0,0-0.3,0.4-0.5,0.5s-0.4,0.4-0.4,0.4l-0.4,0.4l0.7-0.4c0.1,0.2,0.2,0.6,0.2,0.6"/>
		<path fill="#EC2526" d="M69.1,2.2c0.5-1.2-0.3-9.2-0.3-9.2s-1,0.4-1,0.5c0,0.1-0.2,1-0.2,1v0.8v0.6"/>
		<polyline fill="#EC2526" points="-81.1,-85.4 -78.1,-83.5 -80,-82.8 -79.6,-80 		"/>
		<path fill="#EC2526" d="M-35.8,68.8l0.7-1.5l1.5-1.8c0.8-0.3,2.7-2,2.7-2l-1.7,3"/>
		<path fill="#EC2526" d="M92.9,67.2l1-2l-0.5-1.8c-0.7-0.2-0.7-0.2-0.7-0.2l-1.8-0.9l-1.6-1.1l-0.8-1.4"/>
	</g>
</symbol>
<symbol  id="xprod-text" viewBox="-250.8 -98.7 501.6 197.4">
	
		<use xlink:href="#xprodlogo"  width="501.6" height="197.4" id="XMLID_4_" x="-250.6" y="-100.9" transform="matrix(1 0 0 1 -0.1456 2.1647)" overflow="visible"/>
	<g>
		<path d="M-83.5-32.7c-0.1,1.7-0.2,3.7-0.2,5.2h-0.1c-0.4-1.4-0.9-2.9-1.6-4.6l-2.2-5.9h-1.2l-2,5.8c-0.6,1.7-1.1,3.3-1.4,4.7h0
			c0-1.5-0.1-3.5-0.2-5.4l-0.3-5.2h-1.5l0.9,12.1h2l2.1-5.9c0.5-1.5,0.9-2.8,1.2-4.1h0.1c0.3,1.2,0.8,2.6,1.3,4.1l2.2,5.9h2
			l0.8-12.1h-1.6L-83.5-32.7z"/>
		<path d="M-73.7-25.9V-38h-1.6v12.1H-73.7z"/>
		<path d="M-65.4-27.2h-3.8v1.3h9.2v-1.3h-3.8V-38h-1.6V-27.2z"/>
		<path d="M-42.2-37.6c-0.6-0.3-1.8-0.6-3.3-0.6c-3.5,0-6.1,2.2-6.1,6.1c0,3.8,2.6,6.4,6.5,6.4c1.5,0,2.5-0.3,2.9-0.5l-0.4-1.3
			C-43.2-27.2-44-27-45-27c-2.9,0-4.8-1.8-4.8-5c0-3,1.7-4.9,4.8-4.9c1,0,2,0.2,2.6,0.5L-42.2-37.6z"/>
		<path d="M-34.7-25.9v-5.1h6v5.1h1.6V-38h-1.6v5.7h-6V-38h-1.6v12.1H-34.7z"/>
		<path d="M-20.4-26c0.8,0.2,2,0.3,3.1,0.3c1.7,0,2.8-0.3,3.6-1c0.6-0.5,1-1.4,1-2.3c0-1.6-1-2.7-2.3-3.1v-0.1
			c1-0.3,1.5-1.2,1.8-2.4c0.4-1.7,0.7-2.9,1-3.3H-14c-0.2,0.3-0.5,1.4-0.8,2.9c-0.4,1.7-1,2.3-2.5,2.4h-1.5V-38h-1.6V-26z
			 M-18.8-31.5h1.6c1.7,0,2.8,0.9,2.8,2.3c0,1.6-1.2,2.3-2.8,2.3c-0.8,0-1.3-0.1-1.6-0.1V-31.5z"/>
		<path d="M-5-25.9V-38h-1.6v12.1H-5z"/>
		<path d="M1.4-36.1c0.7-0.4,1.8-0.8,2.9-0.8c1.6,0,2.6,0.8,2.6,2.1c0,1.1-0.7,1.8-2.3,2.4c-2,0.7-3.3,1.7-3.3,3.4
			c0,1.9,1.6,3.3,4,3.3c1.3,0,2.2-0.3,2.7-0.6l-0.4-1.3C7.2-27.3,6.4-27,5.2-27c-1.7,0-2.3-1-2.3-1.8c0-1.1,0.8-1.7,2.5-2.3
			c2.1-0.8,3.2-1.8,3.2-3.6c0-1.9-1.4-3.5-4.3-3.5c-1.2,0-2.5,0.3-3.2,0.8L1.4-36.1z"/>
		<path d="M16.2-27.2h-3.8v1.3h9.2v-1.3h-3.8V-38h-1.6V-27.2z"/>
		<path d="M28.5-25.9V-38h-1.6v12.1H28.5z"/>
		<path d="M37.2-34.2L35.9-38h-1.7l4.2,12.1h1.9L44.6-38h-1.7l-1.3,3.8H37.2z M41.2-32.9L40-29.5c-0.3,0.8-0.5,1.5-0.6,2.2h0
			c-0.2-0.7-0.4-1.5-0.6-2.2l-1.2-3.5H41.2z"/>
		<path d="M50.3-38v12.1H52l4-6.1c0.9-1.4,1.6-2.7,2.2-3.9l0,0c-0.1,1.6-0.2,3.1-0.2,5v5.1h1.5V-38H58l-3.9,6.2
			c-0.9,1.4-1.7,2.7-2.3,4.1l-0.1,0c0.1-1.5,0.1-3,0.1-5V-38H50.3z"/>
		<path d="M76.1-34.2L74.8-38h-1.7l4.2,12.1h1.9L83.5-38h-1.7l-1.3,3.8H76.1z M80.1-32.9l-1.2,3.5c-0.3,0.8-0.5,1.5-0.6,2.2h0
			c-0.2-0.7-0.4-1.5-0.6-2.2l-1.2-3.5H80.1z"/>
		<path d="M101.8-37.6c-0.6-0.3-1.8-0.6-3.3-0.6c-3.5,0-6.1,2.2-6.1,6.1c0,3.8,2.6,6.4,6.5,6.4c1.5,0,2.5-0.3,2.9-0.5l-0.4-1.3
			c-0.6,0.3-1.5,0.5-2.5,0.5c-2.9,0-4.8-1.8-4.8-5c0-3,1.7-4.9,4.8-4.9c1,0,2,0.2,2.6,0.5L101.8-37.6z"/>
		<path d="M109.7-34.2l-1.3-3.8h-1.7l4.2,12.1h1.9l4.2-12.1h-1.7l-1.3,3.8H109.7z M113.7-32.9l-1.2,3.5c-0.3,0.8-0.5,1.5-0.6,2.2h0
			c-0.2-0.7-0.4-1.5-0.6-2.2l-1.2-3.5H113.7z"/>
		<path d="M122.8-26c0.8,0.1,1.8,0.2,3.1,0.2c1.6,0,2.7-0.4,3.5-1c0.7-0.6,1.1-1.5,1.1-2.5c0-1.1-0.3-2-1-2.6
			c-0.8-0.9-2.2-1.3-3.8-1.3c-0.5,0-0.9,0-1.3,0.1V-38h-1.6V-26z M124.4-31.8c0.3-0.1,0.8-0.1,1.3-0.1c1.9,0,3.1,0.9,3.1,2.6
			c0,1.6-1.2,2.4-2.9,2.4c-0.7,0-1.2-0.1-1.5-0.1V-31.8z"/>
		<path d="M136.5-26c0.8,0.1,1.8,0.2,3.1,0.2c1.6,0,2.7-0.4,3.5-1c0.7-0.6,1.1-1.5,1.1-2.5c0-1.1-0.3-2-1-2.6
			c-0.8-0.9-2.2-1.3-3.8-1.3c-0.5,0-0.9,0-1.3,0.1V-38h-1.6V-26z M138.1-31.8c0.3-0.1,0.8-0.1,1.3-0.1c1.9,0,3.1,0.9,3.1,2.6
			c0,1.6-1.2,2.4-2.9,2.4c-0.7,0-1.2-0.1-1.5-0.1V-31.8z"/>
		<path d="M156.5-32.3h-4.8v-4.4h5.4V-38h-7v12.1h6.7v-1.3h-5.1V-31h4.8V-32.3z"/>
		<path d="M163.1-25.9h1.6v-10.8h5.3V-38h-6.9V-25.9z"/>
		<path d="M175.6-25.9h1.6v-10.8h5.3V-38h-6.9V-25.9z"/>
		<path d="M190.2-34.2l-1.3-3.8h-1.7l4.2,12.1h1.9l4.2-12.1h-1.7l-1.3,3.8H190.2z M194.3-32.9l-1.2,3.5c-0.3,0.8-0.5,1.5-0.6,2.2h0
			c-0.2-0.7-0.4-1.5-0.6-2.2l-1.2-3.5H194.3z"/>
	</g>
</symbol>
<symbol  id="xprodlogo" viewBox="-250.6 -100.9 501.6 197.4">
	
		<use xlink:href="#xprod"  width="226.5" height="190.6" x="-113.2" y="-95.3" transform="matrix(1.1224 0 0 1.0355 -123.544 -2.1647)" overflow="visible"/>
	<g>
		<g>
			<path d="M-217.7,19.4c0-0.2-0.2-0.2-0.3-0.1c-1,1.3-2.3,2.5-4,3.4c-1.9,1-4,1.5-6.2,1.5c-2.4,0-4.6-0.4-6.5-1.3
				c-1.9-0.8-3.6-2-5-3.5c-1.4-1.5-2.4-3.2-3.2-5.2c-0.7-2-1.1-4.1-1.1-6.4c0-2.3,0.4-4.4,1.1-6.4c0.7-2,1.8-3.7,3.1-5.1
				c1.3-1.5,3-2.6,4.9-3.5c1.9-0.8,4.1-1.3,6.5-1.3c2.6,0,4.9,0.5,6.7,1.5c1.6,0.9,3,2,4.1,3.4c0.1,0.1,0.3,0.1,0.3-0.1l0.1-6.5
				c-0.4-0.4-0.7-0.6-2.1-1.4c-2.5-1.4-5.6-1.9-9.2-1.9c-3.3,0-6.3,0.5-9,1.6c-2.7,1.1-5,2.6-6.9,4.5c-1.9,1.9-3.4,4.2-4.4,6.7
				c-1.1,2.6-1.6,5.4-1.6,8.5c0,3.1,0.5,5.9,1.6,8.5c1.1,2.6,2.5,4.8,4.4,6.7c1.9,1.9,4.2,3.4,6.9,4.5c2.7,1.1,5.7,1.6,9,1.6
				c2.7,0,5.5-0.6,8.4-1.8c0.7-0.3,1.1-0.5,2.3-1.2L-217.7,19.4z"/>
			<path d="M-201.3-13.4h-6.8v42.6h15.5c2.3,0,4.5-0.2,6.6-0.6c2.1-0.4,3.9-1.1,5.5-2c1.6-0.9,2.8-2.1,3.7-3.6
				c0.9-1.5,1.4-3.3,1.4-5.5c0-3.1-1.1-5.7-3.3-7.6c-2.2-1.9-7-3.9-10.4-4.4l18.2-18.8h-8.2l-16.9,18l-5.3-0.1L-201.3-13.4z
				 M-201.3,10.5h7.8c1.6,0,3.1,0.1,4.4,0.4c1.4,0.2,2.6,0.6,3.6,1.2c1,0.5,1.8,1.2,2.4,2.1c0.6,0.9,0.9,1.9,0.9,3.2
				c0,1.3-0.3,2.4-0.9,3.2c-0.6,0.9-1.4,1.6-2.4,2.1c-1,0.5-2.1,0.9-3.4,1.1c-1.3,0.2-2.7,0.3-4.2,0.3h-8.3V10.5z"/>
			<path d="M-127.2,7.9c0-3.1-0.5-5.9-1.4-8.5c-1-2.6-2.3-4.8-4-6.7c-1.7-1.9-3.8-3.4-6.1-4.5c-2.4-1.1-5-1.6-7.9-1.6
				c-2.8,0-5.4,0.5-7.8,1.6c-2.4,1.1-4.4,2.6-6.1,4.5c-1.7,1.9-3,4.2-4,6.7c-1,2.6-1.4,5.4-1.4,8.5c0,3.1,0.5,5.9,1.4,8.5
				c1,2.6,2.3,4.8,4,6.7c1.7,1.9,3.8,3.4,6.1,4.5c2.4,1.1,5,1.6,7.8,1.6c2.9,0,5.5-0.5,7.9-1.6c2.4-1.1,4.4-2.6,6.1-4.5
				c1.7-1.9,3-4.2,4-6.7C-127.7,13.8-127.2,10.9-127.2,7.9z M-132.8,7.9c0,2.2-0.3,4.4-1,6.4c-0.6,2-1.6,3.7-2.8,5.2
				c-1.2,1.5-2.6,2.6-4.4,3.5c-1.7,0.9-3.6,1.3-5.8,1.3c-2.1,0-4-0.4-5.7-1.3c-1.7-0.9-3.1-2-4.3-3.5c-1.2-1.5-2.1-3.2-2.8-5.2
				c-0.6-2-1-4.1-1-6.4c0-2.2,0.3-4.4,1-6.4c0.6-2,1.6-3.7,2.8-5.2c1.2-1.5,2.6-2.6,4.3-3.5c1.7-0.8,3.6-1.3,5.7-1.3
				c2.1,0,4,0.4,5.8,1.3c1.7,0.8,3.2,2,4.4,3.5c1.2,1.5,2.1,3.2,2.8,5.2C-133.1,3.5-132.8,5.6-132.8,7.9z"/>
			<path d="M-99.9,18.5c-0.8,1.7-2,3-3.5,4.1c-1.6,1.1-3.4,1.6-5.4,1.6c-0.9,0-1.9-0.1-2.8-0.3c-0.9-0.2-1.8-0.6-2.5-1.1
				c-0.7-0.5-1.3-1.2-1.8-2c-0.4-0.8-0.7-1.8-0.7-2.9c0-1.9,0.7-3.4,2.1-4.4c1.4-1,3.6-1.9,6.6-2.6c4.3-1,7.5-2.4,9.5-4.3
				c2-1.9,3.1-4.4,3.1-7.6c0-2.3-0.4-4.3-1.2-5.8c-0.8-1.6-1.9-2.9-3.2-3.9c-1.3-1-2.8-1.7-4.4-2.2c-1.6-0.4-3.3-0.6-4.9-0.6
				c-2.8,0-5.4,0.6-8,1.9c-2.6,1.3-4.7,3.3-6.4,6l4.2,3.5c0.9-1.8,2.3-3.3,4.1-4.5c1.8-1.2,3.8-1.8,6-1.8c1.1,0,2.2,0.1,3.3,0.3
				c1,0.2,1.9,0.6,2.7,1.2c0.8,0.6,1.4,1.3,1.9,2.2c0.5,0.9,0.7,2,0.7,3.3c0,2.1-0.9,3.7-2.8,4.8c-1.8,1.1-4.5,2.1-8,3
				c-1.1,0.3-2.2,0.6-3.5,1.1c-1.2,0.4-2.3,1.1-3.4,1.9c-1,0.8-1.9,1.9-2.6,3.2c-0.7,1.3-1,2.9-1,4.8c0,2.1,0.4,3.9,1.1,5.3
				c0.7,1.5,1.7,2.7,2.9,3.6c1.2,1,2.6,1.7,4.2,2.1c1.6,0.5,3.2,0.7,4.8,0.7c2.5,0,5-0.6,7.4-1.9c2.4-1.3,4.2-3.1,5.4-5.4
				L-99.9,18.5z"/>
			<path d="M-67.1,18.5c-0.8,1.7-2,3-3.5,4.1c-1.6,1.1-3.4,1.6-5.4,1.6c-0.9,0-1.9-0.1-2.8-0.3c-0.9-0.2-1.8-0.6-2.5-1.1
				c-0.7-0.5-1.3-1.2-1.8-2c-0.4-0.8-0.7-1.8-0.7-2.9c0-1.9,0.7-3.4,2.1-4.4c1.4-1,3.6-1.9,6.6-2.6c4.3-1,7.5-2.4,9.5-4.3
				c2-1.9,3.1-4.4,3.1-7.6c0-2.3-0.4-4.3-1.2-5.8c-0.8-1.6-1.9-2.9-3.2-3.9c-1.3-1-2.8-1.7-4.4-2.2c-1.6-0.4-3.3-0.6-4.9-0.6
				c-2.8,0-5.4,0.6-8,1.9c-2.6,1.3-4.7,3.3-6.4,6l4.2,3.5c0.9-1.8,2.3-3.3,4.1-4.5c1.8-1.2,3.8-1.8,6-1.8c1.1,0,2.2,0.1,3.3,0.3
				c1,0.2,1.9,0.6,2.7,1.2c0.8,0.6,1.4,1.3,1.9,2.2c0.5,0.9,0.7,2,0.7,3.3c0,2.1-0.9,3.7-2.8,4.8c-1.8,1.1-4.5,2.1-8,3
				c-1.1,0.3-2.2,0.6-3.5,1.1C-83,8-84.2,8.6-85.2,9.5c-1,0.8-1.9,1.9-2.6,3.2c-0.7,1.3-1,2.9-1,4.8c0,2.1,0.4,3.9,1.1,5.3
				c0.7,1.5,1.7,2.7,2.9,3.6c1.2,1,2.6,1.7,4.2,2.1c1.6,0.5,3.2,0.7,4.8,0.7c2.5,0,5-0.6,7.4-1.9c2.4-1.3,3.8-3,5-5.3L-67.1,18.5z"
				/>
			<path d="M-45.9,28.8v-5.9h0.2c0.4,0.7,1,1.5,1.6,2.2c0.7,0.8,1.5,1.4,2.5,2c1,0.6,2.1,1.1,3.3,1.5c1.2,0.4,4.1,0.6,5.6,0.6
				c2.4,0,4.6-0.5,6.6-1.5c2-1,3.7-2.4,5.2-4.2c1.4-1.8,2.6-3.8,3.4-6.2c0.8-2.4,1.2-5,1.2-7.7c0-2.8-0.4-5.3-1.2-7.7
				c-0.8-2.4-1.9-4.5-3.3-6.3c-1.4-1.8-3.1-3.2-5.2-4.3c-2-1.1-4.3-1.6-6.9-1.6c-2.4,0-6,0.5-8,1.6c-2,1.1-3.5,2.6-4.6,4.4h-0.1
				v-16.9h-8.4v50H-45.9z M-25,9.5c0,1.5-0.2,2.9-0.6,4.3c-0.4,1.4-1,2.7-1.8,3.9c-0.8,1.1-1.8,2.1-3,2.8c-1.2,0.7-2.6,1.1-4.3,1.1
				c-1.5,0-4.2-0.4-5.5-1.1c-1.2-0.7-2.2-1.7-3.1-2.8c-0.9-1.1-1.5-2.4-2-3.9c-0.4-1.5-0.7-2.9-0.7-4.4c0-1.5,0.2-2.9,0.7-4.3
				c0.4-1.4,1.1-2.7,2-3.9c0.9-1.1,1.9-2.1,3.1-2.8c1.2-0.7,3.9-1.1,5.5-1.1c1.6,0,3,0.4,4.3,1.1c1.2,0.7,2.2,1.7,3,2.8
				c0.8,1.1,1.4,2.4,1.8,3.9C-25.2,6.6-25,8.1-25,9.5z"/>
			<path d="M-8.7,27.4l8.4,0v-6.7h0.2c1.5,2.4,3.6,4.3,6.2,5.7c2.7,1.5,5.8,2.2,9.3,2.2c0.5,0,1.1,0,1.7,0c0.6,0,1.1-0.1,1.6-0.2
				l-1.1-10.3c-0.9,0.2-1.7,0.3-2.3,0.4c-1.1,0.2-2.9,0.3-3.5,0.3c-3,0-3.5-0.1-4.6-0.5c-1.9-0.6-3.3-1.8-4.3-3
				c-1-1.2-1.7-2.4-2.1-3.6c-0.4-1.2-0.6-2.2-0.6-2.9v-23.1l-8.9,0V27.4z"/>
			<path d="M22.7,8.4c0,3.4,0.5,6.5,1.5,9.2c1,2.8,2.3,5.1,4,7.1c1.7,2,3.6,3.5,5.9,4.5c2.3,1.1,4.7,1.6,7.3,1.6
				c2.6,0,5-0.5,7.3-1.6c2.3-1.1,4.3-2.6,5.9-4.5c1.7-2,3-4.3,4-7.1c1-2.8,1.5-5.8,1.5-9.2c0-3.4-0.5-6.5-1.5-9.3
				c-1-2.8-2.3-5.2-4-7.2c-1.7-2-3.6-3.5-5.9-4.7c-2.3-1.1-4.7-1.7-7.3-1.7c-2.6,0-5,0.6-7.3,1.7c-2.3,1.1-4.3,2.7-5.9,4.7
				c-1.7,2-3,4.4-4,7.2C23.2,1.9,22.7,5,22.7,8.4z M31.4,8.4c0-1.7,0.2-3.3,0.6-5c0.4-1.7,1-3.1,1.8-4.4c0.8-1.3,1.8-2.4,3.1-3.2
				c1.2-0.8,2.7-1.2,4.4-1.2c1.7,0,3.2,0.4,4.4,1.2c1.2,0.8,2.3,1.9,3.1,3.2c0.8,1.3,1.4,2.8,1.8,4.4c0.4,1.7,0.6,3.3,0.6,5
				c0,1.7-0.2,3.3-0.6,4.9c-0.4,1.6-1,3.1-1.8,4.4c-0.8,1.3-1.8,2.4-3.1,3.2c-1.2,0.8-2.7,1.2-4.4,1.2c-1.7,0-3.2-0.4-4.4-1.2
				c-1.2-0.8-2.3-1.9-3.1-3.2C33,16.4,32.4,15,32,13.3C31.6,11.7,31.4,10.1,31.4,8.4z"/>
			<path d="M102-14.4h-8.1v7.7h-0.1c-1.2-2.5-2.8-4.4-5-5.7c-2.1-1.3-4.4-2-6.8-2c-2.6,0-5,0.6-7,1.8c-2.1,1.2-3.8,2.8-5.3,4.9
				c-1.4,2-2.6,4.4-3.3,7.2c-0.8,2.8-1.2,5.7-1.2,8.9c0,3.1,0.4,6.1,1.2,8.8c0.8,2.7,1.9,5.1,3.4,7.1c1.5,2,3.2,3.6,5.3,4.8
				c2,1.2,4.3,1.7,6.7,1.7c1.6,0,3-0.2,4.2-0.7c1.2-0.4,2.3-1,3.2-1.6c0.9-0.7,1.7-1.4,2.4-2.1c0.7-0.8,1.2-1.5,1.6-2.2h0.2v17.1
				h8.5V-14.4z M73.8,8.4c0-1.7,0.2-3.3,0.6-5c0.4-1.7,1-3.1,1.8-4.4c0.8-1.3,1.8-2.4,3.1-3.2c1.2-0.8,2.7-1.2,4.3-1.2
				c1.6,0,3,0.4,4.2,1.2s2.3,1.9,3.2,3.2c0.9,1.3,1.5,2.8,2,4.4c0.5,1.6,0.7,3.3,0.7,4.9c0,1.7-0.2,3.3-0.7,5
				c-0.5,1.7-1.1,3.1-2,4.4c-0.9,1.3-1.9,2.4-3.2,3.2c-1.2,0.8-2.6,1.2-4.2,1.2c-1.7,0-3.1-0.4-4.3-1.2c-1.2-0.8-2.3-1.9-3.1-3.2
				c-0.8-1.3-1.4-2.8-1.8-4.4C74,11.7,73.8,10.1,73.8,8.4z"/>
			<path d="M142.5-9.2c0,0-5.1-4.8-8.2-4.9c-2.7-0.2-6.8-0.3-9.7-0.3c-2.5,0-4.1,0.8-5.9,1.8c-1.8,1-2.8,1.8-3.9,3.4
				c-1.2,1.6-2,3.3-2.5,5.4c-0.5,2-0.8,4.1-0.8,6.2v26h8.6v-23c0-1.2,0.1-2.5,0.2-3.8c0.2-1.3,0.5-2.5,1-3.6
				c0.5-1.1,1.3-1.9,2.2-2.6c0.9-0.7,2.2-1,3.7-1c1.5,0,3.3-0.3,4.5,0.4c1.2,0.7,1.2-0.1,3.1,2.5c1.6,2.2,0.9,2.6,1.2,3.9
				c0.4,1.4,0.2,3,0.2,4.4v22.8h9V2.5c0,0-0.2-4.9-1-7.8"/>
			<path d="M185.5-11.4c-0.5-0.8-3.2-2.2-6.3-3c-3-0.8-6.3-0.8-8-0.6c-2.3,0.3-4.6,0.5-6.7,1.5c-2.1,1-3.9,2.4-5.5,4.3
				c-1.6,1.9-2.8,4.2-3.7,6.9c-0.9,2.7-1.4,5.8-1.4,9.3c0,3.3,0.5,6.4,1.4,9.1c0.9,2.7,2.1,5,3.7,6.9c1.6,1.9,3.4,3.4,5.4,4.4
				c2.1,1,4.3,1.6,6.6,1.6c2.3,0,5.9-0.3,8.3-0.7c2.4-0.5,4.5-2.1,6.3-3.5l-0.2-11.1c-0.1,0.2-0.3-0.3-0.7,0.1
				c-1.1,1.4-2.7,3.5-4.7,4.8c-0.5,0.3-2.3,1.4-3.7,1.8c-1.4,0.4-4.6,0.6-5.6,0.3c-1.1-0.2-2.6-0.8-3.7-1.6c-1.1-0.8-2-1.8-2.8-3.1
				c-0.7-1.3-1.3-2.7-1.6-4.3c-0.4-1.6-0.5-3.2-0.5-4.8c0-1.6,0.2-3.2,0.6-4.8c0.4-1.6,0.9-3,1.7-4.3c0.8-1.3,1.7-2.3,2.8-3.1
				c1.1-0.8,2.4-1.4,3.9-1.6c1.6-0.2,3.2-0.2,5.5,0.3c0.5,0.1,2.5,0.6,3.7,1.3c1.7,1.1,3.3,3.3,4.3,4.4c0.4,0.4,0.8,0,1,0.2"/>
			<path d="M245.2,16.6c-0.8,1.2-1.8,2.2-3.2,3.1c-1.4,0.9-2.8,1.3-4.4,1.3c-1.4,0-2.7-0.3-3.9-1c-1.2-0.7-1.7-1.8-1.7-3.4
				c0-1.6,0.6-2.7,1.9-3.4c1.3-0.7,3.2-1.3,5.7-2c1.3-0.3,2.6-0.8,4-1.4c1.3-0.6,1.8-1.2,3.6-2.3c1.8-1.1,2-2.1,2.7-3.5
				c0.7-1.4,1-3.1,1-5.1c0-2.5-0.4-4.7-1.2-6.4c-0.8-1.8-1.9-3.2-3.2-4.3c-1.3-1.1-2.9-1.9-4.7-2.4c-1.8-0.5-3.6-0.7-5.5-0.7
				c-2.7,0-5.4,0.6-7.9,1.8c-2.6,1.2-4.7,2.9-6.4,5l5.8,6.4c1-1.5,2.2-2.7,3.8-3.7c1.6-1,3.3-1.5,5.2-1.5c0.6,0,1.3,0.1,1.9,0.3
				c0.7,0.2,1.3,0.4,1.8,0.8c0.6,0.4,1,0.9,1.3,1.5c0.3,0.6,0.5,1.4,0.5,2.3c0,1.7-0.7,3-2,3.7c-1.3,0.7-3.3,1.5-6,2.2
				c-1.3,0.3-2.6,0.8-3.8,1.3c-1.2,0.5-2.3,1.3-3.3,2.2c-1,0.9-1.7,2-2.3,3.3c-0.6,1.3-0.9,3-0.9,4.9c0,2.3,0.4,4.3,1.2,5.9
				c0.8,1.7,1.9,3,3.2,4.1c1.3,1.1,2.8,1.8,4.4,2.4c1.7,0.5,3.4,0.8,5.1,0.8c2.5,0,5-0.5,7.4-1.5c2.4-1,4.3-2.6,5.7-4.7L245.2,16.6z
				"/>
		</g>
		<g>
			<polygon points="209.7,-15.1 200.5,-15.1 200.5,38.7 209.7,38.7 			"/>
			<polygon points="217.7,18.7 192.5,18.7 192.5,27.1 217.7,27.1 			"/>
		</g>
	</g>
</symbol>
<use xlink:href="#xprod-text"  width="501.6" height="197.4" id="XMLID_2_" x="-250.8" y="-98.7" transform="matrix(1 0 0 -1 250.7764 98.6945)" overflow="visible"/>
</svg>
